<svg width="242" height="362" viewBox="0 0 242 362" fill="none" xmlns="http://www.w3.org/2000/svg">
<path d="M201 1.00006H41C18.9086 1.00006 1 18.9087 1 41.0001V321C1 343.091 18.9086 361 41 361H201C223.091 361 241 343.091 241 321V41.0001C241 18.9087 223.091 1.00006 201 1.00006Z" fill="white" stroke="black" stroke-width="2"/>
<path d="M201 21.0001H41C29.9543 21.0001 21 29.9544 21 41.0001V321C21 332.046 29.9543 341 41 341H201C212.046 341 221 332.046 221 321V41.0001C221 29.9544 212.046 21.0001 201 21.0001Z" fill="#55AA55"/>
<path fill-rule="evenodd" clip-rule="evenodd" d="M181 81.0001C92.6344 81.0001 21 152.634 21 241C21 263.091 38.9086 281 61 281C149.366 281 221 209.366 221 121C221 98.9087 203.091 81.0001 181 81.0001Z" fill="white"/>
<path d="M116.2 121L77 201V221H125V241H145V221H157V201H145V161H125V201H97.8L137 121H116.2Z" fill="#55AA55"/>
<path d="M50.2 31.0001L30.6 71.0001V81.0001H54.6V91.0001H64.6V81.0001H70.6V71.0001H64.6V51.0001H54.6V71.0001H41L60.6 31.0001H50.2Z" fill="white"/>
<path d="M191 331L210.6 291V281H186.6V271H176.6V281H170.6V291H176.6V311H186.6V291H200.2L180.6 331H191Z" fill="white"/>
</svg>
