<svg width="242" height="362" viewBox="0 0 242 362" fill="none" xmlns="http://www.w3.org/2000/svg">
<path d="M201 0.999939H41C18.9086 0.999939 1 18.9085 1 40.9999V321C1 343.091 18.9086 361 41 361H201C223.091 361 241 343.091 241 321V40.9999C241 18.9085 223.091 0.999939 201 0.999939Z" fill="white" stroke="black" stroke-width="2"/>
<path d="M201 20.9999H41C29.9543 20.9999 21 29.9542 21 40.9999V321C21 332.046 29.9543 341 41 341H201C212.046 341 221 332.046 221 321V40.9999C221 29.9542 212.046 20.9999 201 20.9999Z" fill="#55AA55"/>
<path fill-rule="evenodd" clip-rule="evenodd" d="M181 80.9999C92.6344 80.9999 21 152.634 21 241C21 263.091 38.9086 281 61 281C149.366 281 221 209.366 221 121C221 98.9085 203.091 80.9999 181 80.9999Z" fill="white"/>
<path d="M133.857 151H93.8572C88.3343 151 82.7021 155.042 81.2772 160.029L60.7228 231.97C59.2979 236.957 62.6199 241 68.1428 241H108.143C113.666 241 119.298 236.957 120.723 231.97L141.277 160.029C142.702 155.042 139.38 151 133.857 151Z" fill="white" stroke="black" stroke-width="2.03962"/>
<path d="M121 161H101C95.4772 161 89.8449 165.042 88.4201 170.029L73.5799 221.97C72.155 226.957 75.4771 231 81 231H101C106.523 231 112.155 226.957 113.58 221.97L128.42 170.029C129.845 165.042 126.523 161 121 161Z" fill="#55AA55"/>
<path d="M173.857 121H133.857C128.334 121 122.702 125.043 121.277 130.03L100.723 201.97C99.2977 206.957 102.62 211 108.143 211H148.143C153.665 211 159.298 206.957 160.723 201.97L181.277 130.03C182.702 125.043 179.38 121 173.857 121Z" fill="white" stroke="black" stroke-width="2.03962"/>
<path d="M161 131H141C135.477 131 129.845 135.042 128.42 140.029L113.58 191.97C112.155 196.957 115.477 201 121 201H141C146.523 201 152.155 196.957 153.58 191.97L168.42 140.029C169.845 135.042 166.523 131 161 131Z" fill="#55AA55"/>
<path fill-rule="evenodd" clip-rule="evenodd" d="M35 50.9997V60.9999H25V70.9997H35V80.9997H45V70.9997H55V60.9999H45V50.9997H35Z" fill="white"/>
<path d="M81 30.9999C69.92 30.9999 61 39.9199 61 50.9999V52.9999H71V50.9999C71 45.4599 75.46 40.9999 81 40.9999C86.54 40.9999 91 45.4599 91 50.9999C91 53.2549 89.1289 57.6802 87.175 59.218C76.5654 67.5678 76.6775 66.1889 61 76.9999V90.9999H81H101V80.9999V76.9999H91V80.9999H81H73C85.3801 72.2825 86.2853 72.4937 95.9861 63.8124C99.0942 61.0309 101 55.5103 101 50.9999C101 39.9199 92.08 30.9999 81 30.9999Z" fill="white"/>
<path fill-rule="evenodd" clip-rule="evenodd" d="M207 311V301H217V291.001H207V281H197V291.001H187V301H197V311H207Z" fill="white"/>
<path d="M161 331C172.08 331 181 322.08 181 311V309H171V311C171 316.54 166.54 321 161 321C155.46 321 151 316.54 151 311C151 308.746 152.871 304.32 154.825 302.782C165.435 294.433 165.323 295.812 181 285V271H161H141V281V285H151V281H161H169C156.62 289.718 155.715 289.507 146.014 298.188C142.906 300.97 141 306.49 141 311C141 322.08 149.92 331 161 331Z" fill="white"/>
</svg>
