<?xml version="1.0" encoding="UTF-8"?>
<!DOCTYPE svg PUBLIC "-//W3C//DTD SVG 1.1//EN" "http://www.w3.org/Graphics/SVG/1.1/DTD/svg11.dtd">
<!-- Creator: CorelDRAW 2020 (64-Bit) -->
<svg xmlns="http://www.w3.org/2000/svg" xml:space="preserve" width="64.0292mm" height="95.7792mm" version="1.1" style="shape-rendering:geometricPrecision; text-rendering:geometricPrecision; image-rendering:optimizeQuality; fill-rule:evenodd; clip-rule:evenodd"
viewBox="0 0 6365.14 9521.41"
 xmlns:xlink="http://www.w3.org/1999/xlink"
 xmlns:xodm="http://www.corel.com/coreldraw/odm/2003"
 xmlns:dc="http://purl.org/dc/elements/1.1/"
 xmlns:cc="http://creativecommons.org/ns#"
 xmlns:rdf="http://www.w3.org/1999/02/22-rdf-syntax-ns#"
 xmlns:svg="http://www.w3.org/2000/svg"
 xmlns:sodipodi="http://sodipodi.sourceforge.net/DTD/sodipodi-0.dtd"
 xmlns:inkscape="http://www.inkscape.org/namespaces/inkscape"
 sodipodi:docname="UNO Logo.svg"
 inkscape:version="0.92.3 (2405546, 2018-03-11)">
 <defs>
  <style type="text/css">
   <![CDATA[
    .str0 {stroke:black;stroke-width:52.61;stroke-miterlimit:22.9256}
    .fil2 {fill:black}
    .fil5 {fill:#58585A}
    .fil1 {fill:#ED1C24}
    .fil4 {fill:#F8DA27}
    .fil3 {fill:white}
    .fil0 {fill:white;fill-rule:nonzero}
   ]]>
  </style>
 </defs>
 <g id="图层_x0020_1">
  <metadata id="CorelCorpID_0Corel-Layer"/>
  <path class="fil0 str0" d="M5286.75 26.3l-4208.36 0c-581.05,0 -1052.09,471.03 -1052.09,1052.09l0 7364.63c0,581.04 471.03,1052.09 1052.09,1052.09l4208.36 0c581.04,0 1052.09,-471.04 1052.09,-1052.09l0 -7364.63c0,-581.05 -471.04,-1052.09 -1052.09,-1052.09z"/>
  <g id="back.svg">
   <sodipodi:namedview pagecolor="#ffffff" bordercolor="#666666" borderopacity="1" objecttolerance="10" gridtolerance="10" guidetolerance="10" inkscape:pageopacity="0" inkscape:pageshadow="2" inkscape:window-width="1920" inkscape:window-height="1017" id="namedview47" showgrid="false" inkscape:zoom="0.5959596" inkscape:cx="26.53264" inkscape:cy="414.17013" inkscape:window-x="-8" inkscape:window-y="-8" inkscape:window-maximized="1" inkscape:current-layer="Layer_1"/>
   <g id="g44">
    <path id="path4" class="fil1" d="M2553.76 3127.35c657.22,-349.05 1364.75,-421.37 1943.35,-286.15 1317.58,311.31 1421.35,1301.85 720.11,2323.84 -320.75,468.55 -795.58,918.22 -1367.88,1201.23 -940.23,465.4 -1839.58,490.56 -2430.76,132.08 -594.32,-358.49 -735.83,-962.25 -525.14,-1603.74 216.97,-666.65 823.88,-1352.17 1660.34,-1767.25z" inkscape:connector-curvature="0"/>
    <path id="path6" class="fil0" d="M4622.89 3885.19l0 0c-3.14,37.74 -3.14,75.47 3.15,113.21 6.28,40.88 15.73,84.91 31.44,125.78 22.01,59.75 53.45,113.21 88.05,157.23 31.44,40.88 69.18,72.33 113.21,97.48 53.45,22.02 103.77,34.59 144.65,31.44 34.58,0 59.75,-9.42 78.61,-25.15 12.58,-12.59 22.01,-31.44 25.16,-56.6 6.28,-34.59 0,-78.61 -9.43,-135.22 -3.15,-15.73 -6.29,-28.3 -9.43,-44.03 -3.15,-12.58 -9.43,-28.29 -12.59,-40.88 -28.29,-72.32 -66.03,-138.36 -113.2,-188.67 -40.89,-44.03 -91.2,-75.47 -144.65,-91.2 -56.6,-15.73 -103.77,-15.73 -138.36,-3.14 -22.02,9.43 -40.89,25.16 -50.31,50.31l-6.3 9.43zm-25.15 -886.77c279.87,-103.77 556.59,-81.76 792.43,34.59 245.27,119.49 443.39,342.76 547.16,622.62 59.75,157.23 81.75,320.75 72.32,474.83 -9.43,157.23 -50.31,308.17 -125.78,443.39 -3.15,6.28 -6.29,15.72 -15.73,28.29 -6.28,12.59 -12.58,22.02 -15.73,28.3 -113.2,185.53 -229.55,320.75 -345.9,418.23 -119.5,97.48 -235.85,160.37 -352.2,204.4 -286.15,106.92 -569.17,84.91 -808.15,-31.44 -251.57,-122.63 -452.82,-342.76 -556.6,-625.77 -56.59,-154.09 -84.9,-308.17 -78.61,-455.96 6.29,-150.94 40.88,-295.6 106.92,-430.81 50.31,-100.62 128.92,-216.97 232.7,-327.03 91.2,-97.48 201.26,-191.82 323.9,-273.58l0 0c31.44,-22.02 66.04,-40.88 100.62,-59.76 47.17,-18.86 84.91,-37.74 122.64,-50.31l0.01 0z" inkscape:connector-curvature="0"/>
    <path id="path8" class="fil0" d="M3289.6 3514.13l477.97 -179.24c44.03,-15.73 91.2,6.28 106.92,50.31 0,3.14 3.15,3.14 3.15,6.28l679.23 1814.42c6.28,9.43 9.43,22.01 9.43,34.59 3.14,25.15 -6.29,50.31 -25.16,66.03l-223.26 223.27c-9.43,9.42 -18.87,15.72 -31.44,18.86l-393.07 144.65c-25.16,9.43 -53.46,6.29 -75.47,-9.43l0 0 -443.39 -295.59 84.9 223.27c6.29,12.58 12.59,28.29 12.59,44.02 0,22.01 -9.43,44.03 -25.16,56.6l-223.26 223.26c-9.43,9.43 -18.87,15.73 -28.3,18.87l0 0 -481.11 179.24c-44.03,15.73 -91.2,-6.28 -106.92,-50.31l-685.52 -1833.28c-12.58,-34.59 -3.14,-72.33 25.16,-94.34l216.97 -216.97c9.43,-9.43 18.87,-15.73 31.44,-18.87l418.23 -154.09c25.16,-9.43 53.46,-6.28 75.47,9.43l0 0 408.79 267.29 -75.47 -201.26c-12.58,-31.44 -3.14,-66.04 18.87,-88.05l220.12 -223.26c9.43,-6.29 18.87,-12.59 28.3,-15.73l0 -0.01z" inkscape:connector-curvature="0"/>
    <path id="path10" class="fil0" d="M1660.7 6517.2c-188.67,18.87 -352.19,-15.72 -493.7,-100.62 -191.82,-113.21 -333.32,-311.31 -430.8,-566.02l-377.35 -1012.56c-12.58,-34.58 -3.14,-72.32 25.16,-94.33l216.97 -216.97c9.43,-9.43 18.87,-15.73 28.3,-18.87l0 0 481.11 -179.25c44.03,-15.73 91.2,6.29 106.92,50.31l386.78 1034.57c22.01,59.75 53.45,116.35 97.48,154.09 31.44,28.29 72.32,47.17 122.63,50.31 9.43,0 22.02,0 31.45,0 0,-18.87 -3.15,-37.74 -6.29,-56.6 -6.28,-28.3 -12.58,-56.6 -25.16,-88.05l-386.77 -1034.57c-12.59,-34.58 -3.15,-72.32 25.15,-94.33l210.69 -210.69c9.43,-12.58 22.01,-22.01 37.74,-28.3l481.11 -179.24c44.03,-15.73 91.2,6.28 106.92,50.31l383.64 1025.13c59.75,157.23 88.05,308.17 84.9,449.67 -3.14,141.51 -34.58,273.58 -100.62,393.08 -53.45,94.33 -154.09,191.82 -254.71,289.3 -22.02,22.01 -47.17,44.02 -66.04,62.89l-3.15 3.14c-37.74,40.89 -81.75,78.62 -128.92,110.07 -160.37,113.2 -352.19,185.53 -553.45,207.54l0.01 0z" inkscape:connector-curvature="0"/>
    <polygon id="polygon12" class="fil2" points="3865.05,5614.72 3207.83,5177.62 3383.94,5655.6 3383.94,5655.6 3387.08,5655.6 3163.81,5875.71 2682.7,6058.1 1997.18,4224.81 2220.44,4001.54 2641.81,3847.46 3261.29,4253.11 3097.78,3816.01 3317.9,3592.75 3795.87,3413.51 4484.54,5246.8 4261.27,5470.07 "/>
    <path id="path14" class="fil2" d="M4629.19 3077.04c525.14,-194.96 1044,100.63 1232.67,606.91 110.06,292.44 88.05,606.9 -47.17,855.32 -6.28,15.73 -15.73,31.44 -25.16,47.17 -216.97,358.48 -440.24,506.28 -657.22,588.04 -540.86,201.25 -1066.01,-100.63 -1257.83,-606.91 -106.92,-289.3 -97.48,-572.31 25.16,-820.74 88.05,-179.24 279.87,-405.64 528.28,-569.16l0 0c59.75,-40.88 128.92,-75.47 201.26,-100.63zm-88.05 792.44c0,-3.15 3.14,-6.29 3.14,-9.43 34.59,-113.21 147.8,-147.8 289.3,-110.07 144.65,37.75 254.71,172.95 314.46,330.18 12.58,31.45 22.01,62.9 28.29,97.48 28.3,128.93 15.73,220.12 -37.74,270.44 -62.89,59.75 -179.24,62.89 -311.31,6.28 -110.06,-59.75 -194.96,-169.81 -245.27,-301.88 -37.74,-94.34 -50.31,-191.82 -40.88,-283.01z" inkscape:connector-curvature="0"/>
    <polygon id="polygon16" class="fil2" points="3025.45,4687.06 3383.94,5655.6 2902.81,5834.83 2220.44,4001.54 2641.81,3847.46 3663.81,4514.11 3317.9,3592.75 3795.87,3413.51 4484.54,5246.8 4088.32,5391.44 "/>
    <polygon id="polygon18" class="fil3" points="2896.52,4526.69 3305.31,5617.86 2940.55,5753.08 2302.2,4039.28 2632.38,3916.65 3789.58,4674.49 3399.65,3630.48 3758.14,3495.27 4402.78,5209.07 4094.61,5322.26 "/>
    <polygon id="polygon20" class="fil4" points="3456.26,3655.64 3732.99,3551.87 4343.03,5183.9 4100.89,5271.95 2808.47,4413.49 3248.72,5592.7 2968.85,5696.47 2358.8,4067.58 2626.09,3966.96 3877.63,4784.54 "/>
    <path id="path22" class="fil2" d="M4629.19 3077.04c525.14,-194.96 1044,100.63 1232.67,606.91 188.67,506.28 -9.43,1072.3 -531.44,1267.26 -525.14,194.96 -1044,-100.62 -1232.67,-606.9 -191.82,-509.43 6.28,-1072.31 531.44,-1267.27zm172.95 462.26c-264.14,97.48 -311.31,367.92 -220.12,613.19 91.2,242.13 301.88,415.09 569.17,317.61 264.14,-100.63 311.31,-367.92 220.12,-613.2 -94.34,-242.13 -305.03,-415.08 -569.17,-317.6z" inkscape:connector-curvature="0"/>
    <path id="path24" class="fil3" d="M4651.2 3136.78c490.56,-182.39 974.82,94.34 1154.06,572.31 176.09,474.83 -6.28,1003.12 -496.84,1188.65 -490.56,182.39 -974.82,-97.48 -1154.06,-572.31 -176.09,-477.97 3.14,-1006.26 496.84,-1188.65zm128.93 342.76c-298.74,110.07 -361.63,418.23 -257.86,694.96 103.77,276.73 349.05,465.4 650.93,355.34 298.74,-113.21 361.62,-418.23 257.86,-691.8 -106.92,-276.73 -352.2,-468.55 -650.93,-358.49z" inkscape:connector-curvature="0"/>
    <path id="path26" class="fil4" d="M4764.4 3438.66c311.31,-116.34 588.03,69.19 704.38,380.5 116.35,311.31 28.3,632.06 -283.01,748.41 -311.31,116.35 -591.18,-69.18 -707.53,-380.5 -116.34,-308.16 -25.15,-632.06 286.16,-748.41zm-97.48 -261c459.11,-172.94 924.5,81.76 1097.46,544.01 172.95,462.26 -12.58,959.1 -468.54,1128.91 -459.12,169.8 -924.51,-81.76 -1097.47,-544.01 -176.09,-462.26 6.29,-959.1 468.55,-1128.91z" inkscape:connector-curvature="0"/>
    <path id="path28" class="fil2" d="M1610.39 6438.6c-377.35,22.01 -644.64,-220.12 -792.44,-619.48l-377.35 -1012.55 220.12 -223.26 481.11 -179.25 386.78 1034.56c50.31,132.08 141.51,248.43 295.59,254.72 44.03,3.14 103.77,-3.15 116.35,-59.76 3.15,-66.03 -9.43,-132.07 -34.58,-194.96l-386.78 -1034.56 223.26 -223.26 0 0 0 0 0 0 0 0 477.97 -179.25 383.64 1025.14c110.06,295.59 110.06,559.73 -9.43,773.57 -56.6,100.62 -191.82,220.11 -305.03,333.32l0 0c-172.94,182.39 -433.94,292.44 -679.23,305.02l0.01 0.01z" inkscape:connector-curvature="0"/>
    <path id="path30" class="fil2" d="M2242.45 6102.13l3.14 6.28 -100.62 37.74c-3.15,0 -6.29,3.15 -6.29,3.15 -3.14,0 -6.28,3.14 -9.43,3.14l-100.62 37.74 -3.14 -6.28c-481.12,125.78 -811.31,-125.78 -984.26,-588.04l-377.35 -1012.55 481.12 -179.25 386.77 1034.57c50.31,132.07 141.51,248.43 295.6,254.71 44.02,3.15 91.19,-6.28 132.07,-22.01 44.03,-15.73 84.91,-40.88 116.35,-72.32 110.07,-103.77 103.77,-251.57 53.46,-383.64l-389.94 -1034.56 481.12 -179.25 383.63 1025.14c172.95,465.4 88.05,858.47 -361.62,1075.45l0.01 -0.01z" inkscape:connector-curvature="0"/>
    <path id="path32" class="fil3" d="M2160.7 6070.68l0 0 -40.88 15.72c-3.15,0 -6.29,3.15 -9.43,3.15 -3.15,0 -6.29,3.14 -9.43,3.14l-40.88 15.73 0 0c-477.98,150.93 -795.59,-78.62 -962.25,-531.44l-355.34 -952.82 361.63 -135.22 364.77 974.82c59.75,157.23 172.95,289.3 352.19,295.59 53.46,3.15 106.92,-6.28 157.24,-25.16 50.31,-18.86 100.62,-47.17 138.36,-84.9 128.92,-122.64 128.92,-295.6 69.18,-452.82l-364.78 -974.81 361.63 -135.22 361.62 965.38c169.8,452.82 78.61,820.74 -383.64,1018.84l0.01 0.01z" inkscape:connector-curvature="0"/>
    <path id="path34" class="fil4" d="M799.09 4649.33l279.87 -103.77 349.05 933.95c116.35,308.16 361.62,371.06 566.02,295.59 204.41,-78.61 352.2,-286.16 232.7,-594.32l-349.04 -933.95 279.87 -103.77 345.9 924.51c138.36,367.92 138.36,770.42 -399.36,981.11l0 0c-3.14,0 -6.28,3.14 -9.43,3.14 -3.14,0 -6.28,3.14 -9.43,3.14l0 0c-528.28,188.68 -808.15,-113.2 -949.66,-490.55l-336.47 -915.07z" inkscape:connector-curvature="0"/>
    <path id="path36" class="fil5" d="M3170.1 3828.6l172.95 -176.09 97.48 260.99 -172.95 176.09 -97.48 -260.99zm128.93 349.04l172.95 -176.09 37.74 97.48 -172.95 176.09 -37.74 -97.48z" inkscape:connector-curvature="0"/>
    <path id="path38" class="fil5" d="M1591.52 4419.77l172.94 -176.09 97.48 261 -172.94 176.09 -97.48 -261zm128.92 349.06l172.95 -176.1 37.74 97.48 -172.95 176.1 -37.74 -97.48z" inkscape:connector-curvature="0"/>
    <path id="path40" class="fil5" d="M729.91 5410.32l172.95 -176.09 97.48 260.99 -172.95 176.09 -97.48 -260.99zm132.08 349.04l172.94 -176.09 0 0 6.29 12.59c12.58,28.29 22.01,56.6 34.58,84.9l-176.09 176.09 -37.73 -97.48z" inkscape:connector-curvature="0"/>
    <path id="path42" class="fil5" d="M5015.97 3775.14l176.09 -176.09c62.89,50.31 116.35,122.63 154.09,204.4l-172.95 172.95c-37.74,-75.47 -91.2,-147.8 -157.23,-201.26zm194.96 286.16l169.81 -172.95c12.58,37.74 18.86,72.32 25.15,110.06l-166.66 166.66 0 -3.14c-6.29,-31.45 -15.73,-66.04 -28.3,-100.63l0 0.01z" inkscape:connector-curvature="0"/>
   </g>
  </g>
 </g>
</svg>
